<svg width="32" height="32" viewBox="0 0 32 32" fill="none" xmlns="http://www.w3.org/2000/svg">
<g clip-path="url(#clip0)">
<rect width="32" height="32" rx="2.5" fill="#A15F5F"/>
<rect width="32" height="32" fill="white"/>
<path d="M23.4514 33.6894L19.4101 28.8475C18.2918 29.1271 17.148 29.2669 15.9789 29.2669C13.488 29.2669 11.2005 28.6823 9.11635 27.5131C7.03219 26.344 5.3801 24.73 4.1601 22.6712C2.9401 20.5871 2.3301 18.236 2.3301 15.6181C2.3301 13.0256 2.9401 10.7 4.1601 8.64125C5.3801 6.55708 7.03219 4.93041 9.11635 3.76125C11.2005 2.59208 13.488 2.0075 15.9789 2.0075C18.4951 2.0075 20.7826 2.59208 22.8414 3.76125C24.9255 4.93041 26.5649 6.55708 27.7595 8.64125C28.9795 10.7 29.5895 13.0256 29.5895 15.6181C29.5895 17.9819 29.0811 20.1423 28.0645 22.0994C27.0732 24.031 25.7134 25.6069 23.9851 26.8269L30.0851 33.6894H23.4514ZM7.8201 15.6181C7.8201 17.3973 8.16323 18.9604 8.84948 20.3075C9.53573 21.6546 10.4889 22.6967 11.7089 23.4337C12.9543 24.1454 14.3776 24.5012 15.9789 24.5012C17.5801 24.5012 18.9907 24.1454 20.2107 23.4337C21.4307 22.6967 22.3839 21.6546 23.0701 20.3075C23.7564 18.9604 24.0995 17.3973 24.0995 15.6181C24.0995 13.839 23.7564 12.2885 23.0701 10.9669C22.3839 9.61979 21.4307 8.59042 20.2107 7.87875C18.9907 7.16708 17.5801 6.81125 15.9789 6.81125C14.3776 6.81125 12.9543 7.16708 11.7089 7.87875C10.4889 8.59042 9.53573 9.61979 8.84948 10.9669C8.16323 12.2885 7.8201 13.839 7.8201 15.6181Z" fill="#303030"/>
</g>
<defs>
<clipPath id="clip0">
<rect width="32" height="32" rx="2.5" fill="white"/>
</clipPath>
</defs>
</svg>
